<svg id="visual" viewBox="0 0 960 540" width="960" height="540" xmlns="http://www.w3.org/2000/svg" xmlns:xlink="http://www.w3.org/1999/xlink" version="1.1"><rect x="0" y="0" width="960" height="540" fill="#F7FAF0"></rect><path d="M162 0L159.2 15C156.3 30 150.7 60 144.3 90C138 120 131 150 128.5 180C126 210 128 240 133.5 270C139 300 148 330 151.7 360C155.3 390 153.7 420 151.2 450C148.7 480 145.3 510 143.7 525L142 540L0 540L0 525C0 510 0 480 0 450C0 420 0 390 0 360C0 330 0 300 0 270C0 240 0 210 0 180C0 150 0 120 0 90C0 60 0 30 0 15L0 0Z" fill="#fb5607"></path><path d="M103 0L97 15C91 30 79 60 73.5 90C68 120 69 150 76 180C83 210 96 240 95 270C94 300 79 330 73.7 360C68.3 390 72.7 420 73 450C73.3 480 69.7 510 67.8 525L66 540L0 540L0 525C0 510 0 480 0 450C0 420 0 390 0 360C0 330 0 300 0 270C0 240 0 210 0 180C0 150 0 120 0 90C0 60 0 30 0 15L0 0Z" fill="#ff8e00"></path><path d="M51 0L48.3 15C45.7 30 40.3 60 40.2 90C40 120 45 150 47.7 180C50.3 210 50.7 240 47.2 270C43.7 300 36.3 330 39.2 360C42 390 55 420 55.2 450C55.3 480 42.7 510 36.3 525L30 540L0 540L0 525C0 510 0 480 0 450C0 420 0 390 0 360C0 330 0 300 0 270C0 240 0 210 0 180C0 150 0 120 0 90C0 60 0 30 0 15L0 0Z" fill="#ffbe0b"></path></svg>