<svg id="visual" viewBox="0 0 960 540" width="960" height="540" xmlns="http://www.w3.org/2000/svg" xmlns:xlink="http://www.w3.org/1999/xlink" version="1.1"><rect x="0" y="0" width="960" height="540" fill="#171738"></rect><path d="M167 0L158.2 18C149.3 36 131.7 72 121.8 108C112 144 110 180 112 216C114 252 120 288 123.2 324C126.3 360 126.7 396 123.3 432C120 468 113 504 109.5 522L106 540L0 540L0 522C0 504 0 468 0 432C0 396 0 360 0 324C0 288 0 252 0 216C0 180 0 144 0 108C0 72 0 36 0 18L0 0Z" fill="#dd4803"></path><path d="M100 0L95.3 18C90.7 36 81.3 72 75.2 108C69 144 66 180 73 216C80 252 97 288 97.5 324C98 360 82 396 76.2 432C70.3 468 74.7 504 76.8 522L79 540L0 540L0 522C0 504 0 468 0 432C0 396 0 360 0 324C0 288 0 252 0 216C0 180 0 144 0 108C0 72 0 36 0 18L0 0Z" fill="#ed8100"></path><path d="M32 0L34.3 18C36.7 36 41.3 72 47 108C52.7 144 59.3 180 55.8 216C52.3 252 38.7 288 36.3 324C34 360 43 396 50.5 432C58 468 64 504 67 522L70 540L0 540L0 522C0 504 0 468 0 432C0 396 0 360 0 324C0 288 0 252 0 216C0 180 0 144 0 108C0 72 0 36 0 18L0 0Z" fill="#f5b400"></path></svg>