<svg id="visual" viewBox="0 0 960 540" width="960" height="540" xmlns="http://www.w3.org/2000/svg" xmlns:xlink="http://www.w3.org/1999/xlink" version="1.1"><rect x="0" y="0" width="960" height="540" fill="#001220"></rect><path d="M163 0L153.7 15C144.3 30 125.7 60 119.7 90C113.7 120 120.3 150 125.7 180C131 210 135 240 141.2 270C147.3 300 155.7 330 158.8 360C162 390 160 420 152 450C144 480 130 510 123 525L116 540L0 540L0 525C0 510 0 480 0 450C0 420 0 390 0 360C0 330 0 300 0 270C0 240 0 210 0 180C0 150 0 120 0 90C0 60 0 30 0 15L0 0Z" fill="#6915e0"></path><path d="M94 0L94.8 15C95.7 30 97.3 60 93.2 90C89 120 79 150 76.3 180C73.7 210 78.3 240 86.3 270C94.3 300 105.7 330 101.3 360C97 390 77 420 74.5 450C72 480 87 510 94.5 525L102 540L0 540L0 525C0 510 0 480 0 450C0 420 0 390 0 360C0 330 0 300 0 270C0 240 0 210 0 180C0 150 0 120 0 90C0 60 0 30 0 15L0 0Z" fill="#4544ed"></path><path d="M33 0L36 15C39 30 45 60 51.2 90C57.3 120 63.7 150 63.5 180C63.3 210 56.7 240 49 270C41.3 300 32.7 330 33.3 360C34 390 44 420 48.3 450C52.7 480 51.3 510 50.7 525L50 540L0 540L0 525C0 510 0 480 0 450C0 420 0 390 0 360C0 330 0 300 0 270C0 240 0 210 0 180C0 150 0 120 0 90C0 60 0 30 0 15L0 0Z" fill="#005ef5"></path></svg>