<svg id="visual" viewBox="0 0 960 540" width="960" height="540" xmlns="http://www.w3.org/2000/svg" xmlns:xlink="http://www.w3.org/1999/xlink" version="1.1"><rect x="0" y="0" width="960" height="540" fill="#F7FAF0"></rect><path d="M146 0L147.3 15C148.7 30 151.3 60 147.8 90C144.3 120 134.7 150 134 180C133.3 210 141.7 240 147.3 270C153 300 156 330 151.3 360C146.7 390 134.3 420 135.7 450C137 480 152 510 159.5 525L167 540L0 540L0 525C0 510 0 480 0 450C0 420 0 390 0 360C0 330 0 300 0 270C0 240 0 210 0 180C0 150 0 120 0 90C0 60 0 30 0 15L0 0Z" fill="#8338ec"></path><path d="M118 0L112.3 15C106.7 30 95.3 60 95.8 90C96.3 120 108.7 150 111.3 180C114 210 107 240 105.3 270C103.7 300 107.3 330 102.2 360C97 390 83 420 84.5 450C86 480 103 510 111.5 525L120 540L0 540L0 525C0 510 0 480 0 450C0 420 0 390 0 360C0 330 0 300 0 270C0 240 0 210 0 180C0 150 0 120 0 90C0 60 0 30 0 15L0 0Z" fill="#5a67fc"></path><path d="M64 0L59.7 15C55.3 30 46.7 60 47.3 90C48 120 58 150 62.7 180C67.3 210 66.7 240 61.5 270C56.3 300 46.7 330 44 360C41.3 390 45.7 420 44.5 450C43.3 480 36.7 510 33.3 525L30 540L0 540L0 525C0 510 0 480 0 450C0 420 0 390 0 360C0 330 0 300 0 270C0 240 0 210 0 180C0 150 0 120 0 90C0 60 0 30 0 15L0 0Z" fill="#3a86ff"></path></svg>