<svg id="visual" viewBox="0 0 960 540" width="960" height="540" xmlns="http://www.w3.org/2000/svg" xmlns:xlink="http://www.w3.org/1999/xlink" version="1.1"><rect x="0" y="0" width="960" height="540" fill="#141B0E"></rect><path d="M135 0L138.5 18C142 36 149 72 144.5 108C140 144 124 180 125.2 216C126.3 252 144.7 288 150 324C155.3 360 147.7 396 145.3 432C143 468 146 504 147.5 522L149 540L0 540L0 522C0 504 0 468 0 432C0 396 0 360 0 324C0 288 0 252 0 216C0 180 0 144 0 108C0 72 0 36 0 18L0 0Z" fill="#337133"></path><path d="M101 0L100.3 18C99.7 36 98.3 72 92.5 108C86.7 144 76.3 180 71.3 216C66.3 252 66.7 288 74.3 324C82 360 97 396 100.2 432C103.3 468 94.7 504 90.3 522L86 540L0 540L0 522C0 504 0 468 0 432C0 396 0 360 0 324C0 288 0 252 0 216C0 180 0 144 0 108C0 72 0 36 0 18L0 0Z" fill="#4c8d49"></path><path d="M42 0L46.8 18C51.7 36 61.3 72 62.2 108C63 144 55 180 47.8 216C40.7 252 34.3 288 34 324C33.7 360 39.3 396 41.7 432C44 468 43 504 42.5 522L42 540L0 540L0 522C0 504 0 468 0 432C0 396 0 360 0 324C0 288 0 252 0 216C0 180 0 144 0 108C0 72 0 36 0 18L0 0Z" fill="#65ab5f"></path></svg>