<svg id="visual" viewBox="0 0 960 540" width="960" height="540" xmlns="http://www.w3.org/2000/svg" xmlns:xlink="http://www.w3.org/1999/xlink" version="1.1"><rect x="0" y="0" width="960" height="540" fill="#F7FAF0"></rect><path d="M103 0L110.2 15C117.3 30 131.7 60 133.7 90C135.7 120 125.3 150 125.3 180C125.3 210 135.7 240 135.5 270C135.3 300 124.7 330 125.5 360C126.3 390 138.7 420 143.8 450C149 480 147 510 146 525L145 540L0 540L0 525C0 510 0 480 0 450C0 420 0 390 0 360C0 330 0 300 0 270C0 240 0 210 0 180C0 150 0 120 0 90C0 60 0 30 0 15L0 0Z" fill="#3f8d3f"></path><path d="M131 0L120.2 15C109.3 30 87.7 60 83.7 90C79.7 120 93.3 150 91.7 180C90 210 73 240 69.2 270C65.3 300 74.7 330 82 360C89.3 390 94.7 420 93 450C91.3 480 82.7 510 78.3 525L74 540L0 540L0 525C0 510 0 480 0 450C0 420 0 390 0 360C0 330 0 300 0 270C0 240 0 210 0 180C0 150 0 120 0 90C0 60 0 30 0 15L0 0Z" fill="#5fa35c"></path><path d="M19 0L25.8 15C32.7 30 46.3 60 55.8 90C65.3 120 70.7 150 63 180C55.3 210 34.7 240 33.8 270C33 300 52 330 51.7 360C51.3 390 31.7 420 22.5 450C13.3 480 14.7 510 15.3 525L16 540L0 540L0 525C0 510 0 480 0 450C0 420 0 390 0 360C0 330 0 300 0 270C0 240 0 210 0 180C0 150 0 120 0 90C0 60 0 30 0 15L0 0Z" fill="#7eb979"></path></svg>