<svg id="visual" viewBox="0 0 960 540" width="960" height="540" xmlns="http://www.w3.org/2000/svg" xmlns:xlink="http://www.w3.org/1999/xlink" version="1.1"><rect x="0" y="0" width="960" height="540" fill="#171738"></rect><defs><linearGradient id="grad1_0" x1="43.8%" y1="0%" x2="100%" y2="100%"><stop offset="14.444444444444446%" stop-color="#171738" stop-opacity="1"></stop><stop offset="85.55555555555554%" stop-color="#171738" stop-opacity="1"></stop></linearGradient></defs><defs><linearGradient id="grad2_0" x1="0%" y1="0%" x2="56.3%" y2="100%"><stop offset="14.444444444444446%" stop-color="#171738" stop-opacity="1"></stop><stop offset="85.55555555555554%" stop-color="#171738" stop-opacity="1"></stop></linearGradient></defs><g transform="translate(960, 0)"><path d="M0 216C-22.1 195.3 -44.3 174.5 -67.7 163.5C-91.2 152.5 -116.1 151.2 -140 140C-164 128.8 -187 107.6 -199.6 82.7C-212.1 57.7 -214 28.8 -216 0L0 0Z" fill="#9f70e1"></path></g><g transform="translate(0, 540)"><path d="M0 -216C29.5 -214.8 59 -213.6 82.7 -199.6C106.4 -185.6 124.3 -158.8 134.4 -134.4C144.4 -109.9 146.6 -87.8 158.9 -65.8C171.2 -43.8 193.6 -21.9 216 0L0 0Z" fill="#9f70e1"></path></g></svg>