<svg id="visual" viewBox="0 0 960 540" width="960" height="540" xmlns="http://www.w3.org/2000/svg" xmlns:xlink="http://www.w3.org/1999/xlink" version="1.1"><path d="M0 33L87 33L87 55L175 55L175 87L262 87L262 98L349 98L349 66L436 66L436 66L524 66L524 55L611 55L611 50L698 50L698 114L785 114L785 44L873 44L873 98L960 98L960 71L960 0L960 0L873 0L873 0L785 0L785 0L698 0L698 0L611 0L611 0L524 0L524 0L436 0L436 0L349 0L349 0L262 0L262 0L175 0L175 0L87 0L87 0L0 0Z" fill="#9f70e1"></path><path d="M0 228L87 228L87 293L175 293L175 260L262 260L262 244L349 244L349 158L436 158L436 185L524 185L524 228L611 228L611 147L698 147L698 244L785 244L785 255L873 255L873 233L960 233L960 212L960 69L960 96L873 96L873 42L785 42L785 112L698 112L698 48L611 48L611 53L524 53L524 64L436 64L436 64L349 64L349 96L262 96L262 85L175 85L175 53L87 53L87 31L0 31Z" fill="#7659b5"></path><path d="M0 341L87 341L87 395L175 395L175 368L262 368L262 406L349 406L349 384L436 384L436 363L524 363L524 444L611 444L611 325L698 325L698 406L785 406L785 390L873 390L873 374L960 374L960 395L960 210L960 231L873 231L873 253L785 253L785 242L698 242L698 145L611 145L611 226L524 226L524 183L436 183L436 156L349 156L349 242L262 242L262 258L175 258L175 291L87 291L87 226L0 226Z" fill="#52428a"></path><path d="M0 449L87 449L87 465L175 465L175 476L262 476L262 471L349 471L349 449L436 449L436 487L524 487L524 503L611 503L611 449L698 449L698 476L785 476L785 449L873 449L873 476L960 476L960 471L960 393L960 372L873 372L873 388L785 388L785 404L698 404L698 323L611 323L611 442L524 442L524 361L436 361L436 382L349 382L349 404L262 404L262 366L175 366L175 393L87 393L87 339L0 339Z" fill="#322c60"></path><path d="M0 541L87 541L87 541L175 541L175 541L262 541L262 541L349 541L349 541L436 541L436 541L524 541L524 541L611 541L611 541L698 541L698 541L785 541L785 541L873 541L873 541L960 541L960 541L960 469L960 474L873 474L873 447L785 447L785 474L698 474L698 447L611 447L611 501L524 501L524 485L436 485L436 447L349 447L349 469L262 469L262 474L175 474L175 463L87 463L87 447L0 447Z" fill="#171738"></path></svg>