<svg id="visual" viewBox="0 0 960 540" width="960" height="540" xmlns="http://www.w3.org/2000/svg" xmlns:xlink="http://www.w3.org/1999/xlink" version="1.1"><path d="M0 87L87 87L87 50L175 50L175 82L262 82L262 66L349 66L349 77L436 77L436 98L524 98L524 66L611 66L611 77L698 77L698 87L785 87L785 60L873 60L873 77L960 77L960 55L960 0L960 0L873 0L873 0L785 0L785 0L698 0L698 0L611 0L611 0L524 0L524 0L436 0L436 0L349 0L349 0L262 0L262 0L175 0L175 0L87 0L87 0L0 0Z" fill="#f7faf0"></path><path d="M0 195L87 195L87 185L175 185L175 206L262 206L262 217L349 217L349 217L436 217L436 276L524 276L524 276L611 276L611 195L698 195L698 239L785 239L785 233L873 233L873 244L960 244L960 206L960 53L960 75L873 75L873 58L785 58L785 85L698 85L698 75L611 75L611 64L524 64L524 96L436 96L436 75L349 75L349 64L262 64L262 80L175 80L175 48L87 48L87 85L0 85Z" fill="#dde9ce"></path><path d="M0 401L87 401L87 352L175 352L175 368L262 368L262 357L349 357L349 363L436 363L436 422L524 422L524 401L611 401L611 384L698 384L698 395L785 395L785 422L873 422L873 406L960 406L960 384L960 204L960 242L873 242L873 231L785 231L785 237L698 237L698 193L611 193L611 274L524 274L524 274L436 274L436 215L349 215L349 215L262 215L262 204L175 204L175 183L87 183L87 193L0 193Z" fill="#c1d8af"></path><path d="M0 449L87 449L87 433L175 433L175 433L262 433L262 422L349 422L349 444L436 444L436 476L524 476L524 460L611 460L611 428L698 428L698 465L785 465L785 465L873 465L873 455L960 455L960 455L960 382L960 404L873 404L873 420L785 420L785 393L698 393L698 382L611 382L611 399L524 399L524 420L436 420L436 361L349 361L349 355L262 355L262 366L175 366L175 350L87 350L87 399L0 399Z" fill="#a1c893"></path><path d="M0 541L87 541L87 541L175 541L175 541L262 541L262 541L349 541L349 541L436 541L436 541L524 541L524 541L611 541L611 541L698 541L698 541L785 541L785 541L873 541L873 541L960 541L960 541L960 453L960 453L873 453L873 463L785 463L785 463L698 463L698 426L611 426L611 458L524 458L524 474L436 474L436 442L349 442L349 420L262 420L262 431L175 431L175 431L87 431L87 447L0 447Z" fill="#7eb979"></path></svg>